<svg width="20" height="17" viewBox="0 0 20 17" fill="none" xmlns="http://www.w3.org/2000/svg">
<path d="M17.4786 13.9577C19.0455 12.4755 20 10.5269 20 8.39396C20 6.17477 18.9669 4.15559 17.2855 2.65307C17.2841 2.65133 17.2821 2.65047 17.281 2.64902C15.5297 1.08629 13.0759 0.0859657 10.3466 0.00752562L10.1514 0.00289447C10.101 0.00144723 10.0507 0 10 0C9.94931 0 9.89897 0.00144723 9.84862 0.00289447L9.65448 0.00723617C6.92517 0.0856763 4.47103 1.08629 2.71966 2.64902C2.71828 2.65047 2.71621 2.65104 2.71517 2.65278C1.03345 4.15501 0 6.17477 0 8.39396C0 10.5269 0.954483 12.4755 2.52138 13.9577C2.52345 13.9603 2.52345 13.9632 2.52586 13.9658C2.53207 13.9731 2.54103 13.9765 2.54759 13.9832C4.30828 15.6353 6.83448 16.6996 9.65379 16.7807L9.84828 16.7853C9.89897 16.7865 9.94931 16.7879 10 16.7879C10.0507 16.7879 10.101 16.7865 10.1514 16.785L10.3455 16.7807C13.1679 16.6994 15.6972 15.6327 17.4579 13.9771C17.4624 13.9722 17.4697 13.9707 17.4738 13.9655C17.4766 13.9632 17.4766 13.9603 17.4786 13.9577ZM0.698276 8.68341H4.83724C4.87621 9.91037 5.16172 11.1026 5.67 12.2196C4.68931 12.5174 3.75172 12.9169 2.8731 13.4153C1.58103 12.1252 0.776897 10.4809 0.698276 8.68341ZM3.06138 3.19057C3.91931 3.6589 4.83276 4.03402 5.78552 4.31421C5.20207 5.50296 4.87931 6.78464 4.83724 8.10452H0.698276C0.78069 6.22108 1.65931 4.50611 3.06138 3.19057ZM19.3017 8.10452H15.1628C15.1207 6.78464 14.7979 5.50296 14.2145 4.31421C15.1672 4.03402 16.0807 3.6589 16.9386 3.19057C18.3407 4.50611 19.2193 6.22108 19.3017 8.10452ZM9.65517 4.33099C8.65828 4.30726 7.67966 4.18251 6.73414 3.95963C7.4331 2.75611 8.42 1.66982 9.65517 0.765298V4.33099ZM9.65517 4.90989V8.10452H5.5269C5.56931 6.846 5.88379 5.6254 6.44621 4.49366C7.48276 4.74577 8.55897 4.88529 9.65517 4.90989ZM10.3448 4.90989C11.441 4.88529 12.5172 4.74606 13.5541 4.49366C14.1166 5.6254 14.431 6.846 14.4734 8.10452H10.3448V4.90989ZM10.3448 4.33099V0.765298C11.58 1.66982 12.5669 2.75611 13.2659 3.95963C12.3203 4.18251 11.3417 4.30726 10.3448 4.33099ZM13.9341 3.78365C13.2717 2.61863 12.3524 1.55722 11.2141 0.647493C13.2334 0.869209 15.0503 1.63566 16.4497 2.76567C15.6552 3.18884 14.8124 3.52923 13.9341 3.78365ZM6.06586 3.78365C5.18759 3.52923 4.34483 3.18884 3.55069 2.76567C4.94966 1.63566 6.7669 0.869209 8.78621 0.647493C7.64759 1.55722 6.72828 2.61863 6.06586 3.78365ZM5.5269 8.68341H9.65517V11.5889C8.51483 11.6143 7.39759 11.7637 6.32379 12.0349C5.83862 10.977 5.56586 9.8467 5.5269 8.68341ZM9.65517 12.1678V16.0226C8.3331 15.0544 7.29655 13.8781 6.59172 12.5733C7.58034 12.3287 8.60724 12.1927 9.65517 12.1678ZM10.3448 16.0226V12.1678C11.3928 12.1924 12.4197 12.3287 13.4083 12.573C12.7034 13.8781 11.6669 15.0544 10.3448 16.0226ZM10.3448 11.5889V8.68341H14.4731C14.4341 9.8467 14.1614 10.977 13.6759 12.0352C12.6024 11.7637 11.4852 11.6143 10.3448 11.5889ZM15.1628 8.68341H19.3017C19.2231 10.4809 18.4193 12.1252 17.1269 13.4153C16.2483 12.9169 15.3107 12.5174 14.33 12.2196C14.8386 11.1026 15.1238 9.91037 15.1628 8.68341ZM3.34172 13.8489C4.15759 13.3939 5.02621 13.028 5.93379 12.7545C6.60448 14.0165 7.56724 15.1664 8.78586 16.1404C6.66483 15.9074 4.76655 15.0738 3.34172 13.8489ZM11.2141 16.1404C12.4328 15.1667 13.3955 14.0168 14.0662 12.7545C14.9738 13.028 15.8421 13.3939 16.6583 13.8489C15.2334 15.0738 13.3352 15.9074 11.2141 16.1404Z" fill="white"/>
</svg>
