<svg width="20" height="17" viewBox="0 0 20 17" fill="none" xmlns="http://www.w3.org/2000/svg">
<path d="M19.8779 15.6963L14.0681 10.8196C15.17 9.67763 15.8334 8.22587 15.8334 6.64524C15.8334 2.98107 12.2819 0 7.91666 0C3.55142 0 0 2.98107 0 6.64524C0 10.3094 3.55146 13.2905 7.9167 13.2905C9.79975 13.2905 11.5293 12.7337 12.8897 11.8087L18.6996 16.6855C18.8624 16.822 19.1261 16.822 19.2889 16.6855L19.878 16.191C20.0407 16.0544 20.0407 15.8329 19.8779 15.6963ZM7.9167 11.8915C4.47025 11.8915 1.66668 9.53818 1.66668 6.64524C1.66668 3.7523 4.47025 1.39901 7.9167 1.39901C11.3632 1.39901 14.1667 3.7523 14.1667 6.64524C14.1667 9.53818 11.3632 11.8915 7.9167 11.8915Z" fill="white"/>
</svg>
